<svg xmlns="http://www.w3.org/2000/svg" width="68.506" height="95.036" viewBox="0 0 68.506 95.036">
  <g id="Group_3946" data-name="Group 3946" transform="translate(-235.275 -3259.573)">
    <rect id="Rectangle_2908" data-name="Rectangle 2908" width="55.267" height="41.275" rx="14" transform="translate(248.375 3313.04)" fill="#ff949f" opacity="0.2"/>
    <g id="padlock" transform="translate(235.275 3259.573)">
      <path id="Path_2" data-name="Path 2" d="M145.439,60.746V45.69a25.338,25.338,0,0,0-7.528-18.139,24.477,24.477,0,0,0-17.344-7.225c-.109,0-.22,0-.329,0A25.3,25.3,0,0,0,95.067,45.69V60.746A10.28,10.28,0,0,0,86,71.084v33.8a10.41,10.41,0,0,0,10.329,10.482h47.848a10.41,10.41,0,0,0,10.329-10.482v-33.8A10.28,10.28,0,0,0,145.439,60.746ZM99.1,45.69a21.328,21.328,0,0,1,21.156-21.4h.028a20.816,20.816,0,0,1,14.792,6.088,21.416,21.416,0,0,1,6.336,15.311v15.07h-4.433V45.69a17,17,0,0,0-5.012-12.18,16.327,16.327,0,0,0-11.554-4.787h-.126A16.864,16.864,0,0,0,103.529,45.69v15.07H99.1Zm33.85,0v15.07H107.559V45.69a12.829,12.829,0,0,1,12.725-12.937h.126a12.319,12.319,0,0,1,8.718,3.62A13,13,0,0,1,132.947,45.69Zm17.731,59.256a6.387,6.387,0,0,1-6.387,6.387H96.417a6.387,6.387,0,0,1-6.387-6.387V71.176a6.387,6.387,0,0,1,6.387-6.387H144.29a6.387,6.387,0,0,1,6.387,6.387Z" transform="translate(-86 -20.326)" fill="#1bbc9b"/>
      <path id="Path_3" data-name="Path 3" d="M227.2,324.165a7.265,7.265,0,0,0-2.015,14.245v5.634a2.015,2.015,0,0,0,4.03,0V338.41a7.265,7.265,0,0,0-2.015-14.245Zm0,10.5a3.236,3.236,0,1,1,3.236-3.236A3.236,3.236,0,0,1,227.2,334.667Z" transform="translate(-192.951 -262.945)" fill="#1bbc9b"/>
    </g>
  </g>
</svg>
