<svg xmlns="http://www.w3.org/2000/svg" width="31.839" height="31.839" viewBox="0 0 31.839 31.839">
  <g id="drop-phone-icon" transform="matrix(-0.719, 0.695, -0.695, -0.719, 31.839, 16.197)">
    <path id="Path_1859" data-name="Path 1859" d="M22.02,17.272a1.227,1.227,0,0,1,.112,1.88l-2.457,2.457c-2.459,2.459-9.977-.411-14.166-4.6S-1.551,5.3.909,2.843L3.366.385A1.227,1.227,0,0,1,5.246.5L8.2,4.282a1.65,1.65,0,0,1-.133,2.124L6.452,8.023a1.92,1.92,0,0,0-.285,2.233,14.739,14.739,0,0,0,2.64,3.454,14.737,14.737,0,0,0,3.454,2.64,1.94,1.94,0,0,0,2.233-.285l1.617-1.617a1.65,1.65,0,0,1,2.124-.133l3.785,2.955Z" transform="translate(0)" fill="#fff" fill-rule="evenodd"/>
  </g>
</svg>
