<svg xmlns="http://www.w3.org/2000/svg" width="135.151" height="26.422" viewBox="0 0 135.151 26.422">
  <path id="Path_31615" data-name="Path 31615" d="M1.413-1.184l2.062-.84a.933.933,0,0,0,.318-.2.558.558,0,0,0,.127-.407V-15.884a.461.461,0,0,0-.134-.369,1.2,1.2,0,0,0-.312-.191l-2.062-.84v-1.184h9.418v1.184l-2.049.84a1.473,1.473,0,0,0-.337.2.441.441,0,0,0-.134.363v5.167h7.6v-5.167a.44.44,0,0,0-.146-.369,1.367,1.367,0,0,0-.337-.191l-2.036-.84v-1.184H22.82v1.184l-2.036.84a1.367,1.367,0,0,0-.337.191.44.44,0,0,0-.146.369V-2.635a.5.5,0,0,0,.14.4,1.349,1.349,0,0,0,.344.21l2.036.84V0H13.389V-1.184l2.036-.84a1.556,1.556,0,0,0,.35-.216.5.5,0,0,0,.134-.395V-8.476h-7.6v5.842a.535.535,0,0,0,.127.4,1.105,1.105,0,0,0,.344.21l2.049.84V0H1.413Zm28.649-14.5a2.7,2.7,0,0,1-.948-.178,3.2,3.2,0,0,1-.865-.484,2.542,2.542,0,0,1-.63-.719,1.747,1.747,0,0,1-.242-.9,1.806,1.806,0,0,1,.223-.9,1.992,1.992,0,0,1,.592-.655,2.716,2.716,0,0,1,.853-.395,3.806,3.806,0,0,1,1.018-.134,4.908,4.908,0,0,1,1.133.121,2.842,2.842,0,0,1,.878.356,1.678,1.678,0,0,1,.573.6,1.7,1.7,0,0,1,.2.846,2.038,2.038,0,0,1-.235.967,2.545,2.545,0,0,1-.624.77,3.082,3.082,0,0,1-.891.515A2.9,2.9,0,0,1,30.062-15.68ZM25.48,6.376q-.267,0-.668-.032t-.834-.083q-.433-.051-.846-.108t-.719-.108V2.622h.967q.318.127.821.286t1.044.305q.541.146,1.044.248a4.283,4.283,0,0,0,.808.1,1.4,1.4,0,0,0,.541-.089.777.777,0,0,0,.35-.305,1.745,1.745,0,0,0,.134-.56q.057-.433.089-1.088t.045-1.5q.013-.84.013-1.782v-9.113a.5.5,0,0,0-.127-.375,1.07,1.07,0,0,0-.369-.21l-2.418-.9v-1.209l7.1-.255V-1.527A9.952,9.952,0,0,1,31.9,1.947a6.955,6.955,0,0,1-1.508,2.469,6.18,6.18,0,0,1-2.221,1.47A7.394,7.394,0,0,1,25.48,6.376ZM43.705.318a8.868,8.868,0,0,1-2.953-.477,6.635,6.635,0,0,1-2.355-1.4,6.45,6.45,0,0,1-1.559-2.285,8.062,8.062,0,0,1-.566-3.118,8.111,8.111,0,0,1,.541-2.985,7.19,7.19,0,0,1,1.515-2.393,6.908,6.908,0,0,1,2.342-1.585,7.787,7.787,0,0,1,3.035-.573,8.257,8.257,0,0,1,2.813.445,6.284,6.284,0,0,1,2.087,1.209,5.2,5.2,0,0,1,1.3,1.782A5.274,5.274,0,0,1,50.362-8.9q0,.127-.013.42t-.032.617q-.019.325-.045.611t-.038.4h-9.7a4.156,4.156,0,0,0,1.215,3.226,5.135,5.135,0,0,0,3.583,1.114,8.5,8.5,0,0,0,1.355-.1,10.129,10.129,0,0,0,1.165-.255,9.087,9.087,0,0,0,.98-.337q.445-.185.789-.363h.7v1.693a13.24,13.24,0,0,1-1.3.783,12.829,12.829,0,0,1-1.578.7,12.622,12.622,0,0,1-1.795.509A9.5,9.5,0,0,1,43.705.318Zm2.367-9.227a7.624,7.624,0,0,0-.14-1.54,3.253,3.253,0,0,0-.452-1.145,2,2,0,0,0-.815-.713,2.785,2.785,0,0,0-1.215-.242,2.577,2.577,0,0,0-1.12.242,2.611,2.611,0,0,0-.891.7,3.6,3.6,0,0,0-.617,1.139,5.8,5.8,0,0,0-.286,1.559Zm6.084,7.738,2.075-.751a1.168,1.168,0,0,0,.363-.21.482.482,0,0,0,.134-.375V-17.093a.46.46,0,0,0-.159-.382,1.459,1.459,0,0,0-.337-.2l-2.2-.942v-1.209h6.885V-2.507a.478.478,0,0,0,.159.388,1.1,1.1,0,0,0,.337.2l2.049.751V0h-9.3ZM63.267,5.345l1.68-.6a1.091,1.091,0,0,0,.35-.191.461.461,0,0,0,.134-.369V-11.365a.469.469,0,0,0-.153-.382,1.338,1.338,0,0,0-.331-.2l-1.6-.687V-13.72l4.48-.636v2.329h.216a5.256,5.256,0,0,1,1.222-1.33,5.655,5.655,0,0,1,1.3-.738,4.806,4.806,0,0,1,1.2-.312,8.509,8.509,0,0,1,.929-.064,5.246,5.246,0,0,1,2.355.515,5.155,5.155,0,0,1,1.769,1.425,6.537,6.537,0,0,1,1.114,2.157,9.037,9.037,0,0,1,.388,2.7,9.882,9.882,0,0,1-.458,3.042,7.483,7.483,0,0,1-1.324,2.482A6.322,6.322,0,0,1,74.416-.477,6.256,6.256,0,0,1,71.6.14,5.371,5.371,0,0,1,70.465.025,5.17,5.17,0,0,1,69.5-.28a4.375,4.375,0,0,1-.789-.439,4.782,4.782,0,0,1-.617-.515v5.4a.45.45,0,0,0,.153.375,1.119,1.119,0,0,0,.344.185l2.036.624V6.376H63.267Zm4.824-7.636a3.19,3.19,0,0,0,.725.3,8.152,8.152,0,0,0,.859.2q.439.076.846.108t.675.032a4.235,4.235,0,0,0,1.9-.4,3.717,3.717,0,0,0,1.336-1.1,4.846,4.846,0,0,0,.789-1.635,7.384,7.384,0,0,0,.261-1.992,9.582,9.582,0,0,0-.248-2.234,5.3,5.3,0,0,0-.776-1.8,3.843,3.843,0,0,0-1.33-1.2,3.918,3.918,0,0,0-1.909-.439,4.245,4.245,0,0,0-.751.076,4.341,4.341,0,0,0-.846.248,3.975,3.975,0,0,0-.834.465,2.941,2.941,0,0,0-.7.713ZM81.7-3.818h1.769l.382,1.145a1.31,1.31,0,0,0,.2.4,1.046,1.046,0,0,0,.286.261,3.941,3.941,0,0,0,.573.267,5.855,5.855,0,0,0,.636.2,5.8,5.8,0,0,0,.687.127,5.741,5.741,0,0,0,.713.045A5.357,5.357,0,0,0,88.047-1.5a3.729,3.729,0,0,0,1.044-.382,2.424,2.424,0,0,0,.77-.655,1.514,1.514,0,0,0,.3-.942,1.971,1.971,0,0,0-.14-.783,1.687,1.687,0,0,0-.407-.573,2.411,2.411,0,0,0-.668-.426,7.164,7.164,0,0,0-.935-.331Q87.258-5.8,86.52-6.02t-1.489-.433a5.376,5.376,0,0,1-1.375-.6,3.942,3.942,0,0,1-.98-.859,3.383,3.383,0,0,1-.585-1.069,3.9,3.9,0,0,1-.191-1.228,3.113,3.113,0,0,1,.5-1.7,4.726,4.726,0,0,1,1.324-1.355,6.6,6.6,0,0,1,1.909-.891,7.942,7.942,0,0,1,2.253-.318q.611,0,1.152.045t1.037.127q.5.083.967.2t.967.255v3.258H90.249l-.382-1.247a.823.823,0,0,0-.216-.337,1.408,1.408,0,0,0-.293-.223,3.43,3.43,0,0,0-.967-.3,6.987,6.987,0,0,0-1.095-.083,5.075,5.075,0,0,0-1.145.121,3.112,3.112,0,0,0-.9.35,1.7,1.7,0,0,0-.592.573,1.483,1.483,0,0,0-.21.789,2.165,2.165,0,0,0,.14.808,1.712,1.712,0,0,0,.458.636,3.209,3.209,0,0,0,.821.515,9.9,9.9,0,0,0,1.215.445q.305.089.611.185t.611.185q.305.089.611.185t.611.185a8.476,8.476,0,0,1,1.451.573,3.649,3.649,0,0,1,1.005.745,2.678,2.678,0,0,1,.579.974,3.94,3.94,0,0,1,.185,1.26,3.475,3.475,0,0,1-.528,1.877A4.935,4.935,0,0,1,90.828-.929a6.734,6.734,0,0,1-1.96.923,7.86,7.86,0,0,1-2.234.325,11.5,11.5,0,0,1-1.4-.083Q84.56.153,83.943.019t-1.177-.3q-.56-.165-1.069-.331ZM102.4.318A7.425,7.425,0,0,1,99.61-.191a6.1,6.1,0,0,1-2.17-1.457,6.54,6.54,0,0,1-1.4-2.316,9.007,9.007,0,0,1-.5-3.086,8.567,8.567,0,0,1,.49-2.934,6.974,6.974,0,0,1,1.4-2.355,6.43,6.43,0,0,1,2.2-1.565,7.138,7.138,0,0,1,2.9-.566,7.163,7.163,0,0,1,3.035.6,6.059,6.059,0,0,1,2.138,1.61,6.788,6.788,0,0,1,1.266,2.348,9.326,9.326,0,0,1,.42,2.813,8.528,8.528,0,0,1-.49,2.921,7.029,7.029,0,0,1-1.394,2.355,6.436,6.436,0,0,1-2.2,1.572A7.1,7.1,0,0,1,102.4.318Zm.191-1.565a3.23,3.23,0,0,0,1.871-.515,3.758,3.758,0,0,0,1.19-1.324,6.072,6.072,0,0,0,.624-1.795,10.538,10.538,0,0,0,.185-1.941,11.269,11.269,0,0,0-.223-2.253,6.364,6.364,0,0,0-.719-1.947,4.045,4.045,0,0,0-1.279-1.368,3.383,3.383,0,0,0-1.9-.515,3.46,3.46,0,0,0-1.324.235,3.261,3.261,0,0,0-1.005.643,3.728,3.728,0,0,0-.725.948,6.147,6.147,0,0,0-.477,1.152,7.286,7.286,0,0,0-.261,1.266,11.051,11.051,0,0,0-.076,1.279,12.576,12.576,0,0,0,.083,1.425,8.509,8.509,0,0,0,.28,1.406,6.932,6.932,0,0,0,.509,1.279,4.168,4.168,0,0,0,.77,1.05,3.4,3.4,0,0,0,1.075.713A3.583,3.583,0,0,0,102.595-1.247Zm9.647.2,1.6-.56a1.023,1.023,0,0,0,.331-.2.488.488,0,0,0,.153-.388v-9.176a.469.469,0,0,0-.153-.382,1.338,1.338,0,0,0-.331-.2l-1.6-.687V-13.72l4.467-.636v2.2h.2a6.773,6.773,0,0,1,1.171-1.222,5.139,5.139,0,0,1,1.158-.7,4.469,4.469,0,0,1,1.12-.318,7.732,7.732,0,0,1,1.069-.076,5.8,5.8,0,0,1,1.317.146,4.168,4.168,0,0,1,1.165.458,3.612,3.612,0,0,1,.955.815,3.917,3.917,0,0,1,.675,1.228,9.073,9.073,0,0,1,1.349-1.457,5.72,5.72,0,0,1,1.209-.8,3.643,3.643,0,0,1,1.095-.331,8.409,8.409,0,0,1,1.018-.064,5.417,5.417,0,0,1,1.712.267,3.73,3.73,0,0,1,1.413.84A4.054,4.054,0,0,1,134.3-11.9a5.715,5.715,0,0,1,.356,2.125v7.522a.586.586,0,0,0,.14.439,1,1,0,0,0,.344.21l1.425.56V0h-6.351V-1.044L131.5-1.6a1.359,1.359,0,0,0,.35-.216.549.549,0,0,0,.146-.433V-8.591a10.691,10.691,0,0,0-.108-1.616,2.948,2.948,0,0,0-.426-1.184,1.972,1.972,0,0,0-.9-.732,3.871,3.871,0,0,0-1.508-.248,6.369,6.369,0,0,0-.821.057,4.276,4.276,0,0,0-.872.21,4.094,4.094,0,0,0-.834.407,2.765,2.765,0,0,0-.706.649v8.795a.542.542,0,0,0,.14.426,1.658,1.658,0,0,0,.344.223l1.133.56V0h-6.007V-1.044l1.235-.56a1.559,1.559,0,0,0,.356-.223.542.542,0,0,0,.14-.426V-8.591a10.692,10.692,0,0,0-.108-1.616,3.009,3.009,0,0,0-.42-1.184,1.938,1.938,0,0,0-.885-.732,3.783,3.783,0,0,0-1.489-.248,6.936,6.936,0,0,0-.872.057,4.533,4.533,0,0,0-.885.2,3.721,3.721,0,0,0-.827.4,2.719,2.719,0,0,0-.687.636v8.884a.45.45,0,0,0,.153.375,1.9,1.9,0,0,0,.331.21l1.171.56V0h-6.4Z" transform="translate(-1.413 20.045)" fill="#fff"/>
</svg>
