<svg xmlns="http://www.w3.org/2000/svg" width="72.889" height="88.855" viewBox="0 0 72.889 88.855">
  <g id="Group_19283" data-name="Group 19283" transform="translate(-277.554 -3091.069)">
    <rect id="Rectangle_2909" data-name="Rectangle 2909" width="38.591" height="41.207" rx="14" transform="translate(294.85 3099.851)" fill="#ff949f" opacity="0.2"/>
    <g id="trophy" transform="translate(277.554 3091.069)">
      <path id="Path_8" data-name="Path 8" d="M117.154,6.942H105.006V1.735A1.735,1.735,0,0,0,103.27,0H61.619a1.735,1.735,0,0,0-1.735,1.735V6.942H47.735A1.735,1.735,0,0,0,46,8.677V22.908A15.637,15.637,0,0,0,61.619,38.527h0A22.7,22.7,0,0,0,72.338,50.016,5.2,5.2,0,0,0,75.5,59.353h1.638A15.641,15.641,0,0,1,61.619,73.236H58.148a1.735,1.735,0,0,0-1.735,1.735V87.12a1.735,1.735,0,0,0,1.735,1.735h48.593a1.735,1.735,0,0,0,1.735-1.735V74.972a1.735,1.735,0,0,0-1.735-1.735H103.27A15.641,15.641,0,0,1,87.748,59.353h1.638a5.2,5.2,0,0,0,3.165-9.336,22.7,22.7,0,0,0,10.718-11.489h0a15.538,15.538,0,0,0,15.619-15.421V8.677A1.736,1.736,0,0,0,117.154,6.942ZM49.471,22.908v-12.5H59.884V29.85A22.55,22.55,0,0,0,60.478,35,12.164,12.164,0,0,1,49.471,22.908Zm55.535,62.477H59.884V76.707h45.122Zm-12.7-12.148H72.582A19.1,19.1,0,0,0,80.63,59.353h3.63A19.1,19.1,0,0,0,92.307,73.236Zm-2.92-20.826a1.735,1.735,0,0,1,0,3.471H75.5a1.735,1.735,0,1,1,0-3.471ZM82.445,48.94a19.112,19.112,0,0,1-19.09-19.09V3.471h38.18V29.85A19.112,19.112,0,0,1,82.445,48.94Zm32.974-25.834A12.043,12.043,0,0,1,104.411,35a22.542,22.542,0,0,0,.594-5.152V10.413h10.413Z" transform="translate(-46)" fill="#1bbc9b"/>
      <path id="Path_9" data-name="Path 9" d="M206.413,76l3.218,6.855,7.2,1.1-5.206,5.336,1.229,7.535-6.435-3.557-6.435,3.557,1.229-7.535L196,83.955l7.2-1.1Z" transform="translate(-169.968 -60.848)" fill="#1bbc9b"/>
    </g>
  </g>
</svg>
