<svg xmlns="http://www.w3.org/2000/svg" width="89.848" height="89.855" viewBox="0 0 89.848 89.855">
  <g id="Group_3957" data-name="Group 3957" transform="translate(-251.956 -3073.448)">
    <circle id="Ellipse_1" data-name="Ellipse 1" cx="21.655" cy="21.655" r="21.655" transform="translate(268.729 3089.865)" fill="#ff949f" opacity="0.2"/>
    <g id="search_4_" data-name="search (4)" transform="translate(252.456 3073.948)">
      <path id="Path_4" data-name="Path 4" d="M90.71,64.025a26.65,26.65,0,1,0,26.662,26.651A26.687,26.687,0,0,0,90.71,64.025Zm0,51.071a24.42,24.42,0,1,1,24.432-24.42A24.454,24.454,0,0,1,90.71,115.1Z" transform="translate(-55.298 -55.279)" fill="#1bbc9b" stroke="#1bbc9b" stroke-width="1"/>
      <path id="Path_5" data-name="Path 5" d="M86.252,76.224a1.115,1.115,0,0,0-1.577,0l-.839.839-3.28-3.278a35.452,35.452,0,1,0-6.744,6.742l3.28,3.278-.878.878a1.115,1.115,0,0,0,0,1.577l17.5,17.493a7.092,7.092,0,0,0,10.026-.005q.138-.136.269-.28a7.111,7.111,0,0,0-.263-9.758ZM19.2,52.366A33.182,33.182,0,1,1,52.382,85.532,33.211,33.211,0,0,1,19.2,52.366ZM75.552,79.113a35.75,35.75,0,0,0,3.59-3.588l3.116,3.114-3.59,3.588Zm26.8,22.855c-.059.065-.119.128-.187.194a4.875,4.875,0,0,1-6.886.006l-16.7-16.7,6.885-6.882,16.712,16.706A4.861,4.861,0,0,1,102.356,101.969Z" transform="translate(-16.97 -16.97)" fill="#1bbc9b" stroke="#1bbc9b" stroke-width="1"/>
      <path id="Path_6" data-name="Path 6" d="M160.132,123H138.24a4.183,4.183,0,0,0-4.24,4.091v24.377c0,.015.046.031.046.046s.022.037.022.064a4.16,4.16,0,0,0,4.172,4.134h20.274a1.107,1.107,0,0,0,1.135-1.085v-4.863h.483a1.261,1.261,0,0,0,1.19-1.205v-24.5a1.133,1.133,0,0,0-1.19-1.057Zm-23.9,4.091a1.952,1.952,0,0,1,2.01-1.86h2.265v22.3H138.24a4.922,4.922,0,0,0-2.01.381Zm21.188,26.391H138.24a1.86,1.86,0,1,1,0-3.717h19.179Zm1.673-5.948H142.736v-22.3h16.356Z" transform="translate(-112.249 -103.293)" fill="#1bbc9b" stroke="#1bbc9b" stroke-width="1"/>
    </g>
  </g>
</svg>
